<svg width="134" height="24" viewBox="0 0 134 24" fill="#da291c" xmlns="http://www.w3.org/2000/svg">
    <path d="M20.1388 4.99548L16.5275 18.7846H12.7598L10.1115 8.73285L7.47529 18.7846H3.61126L0 4.99548H3.35848L5.76598 15.5359L8.34199 4.99548H11.9532L14.5293 15.487L16.8525 4.99548H20.1388Z"/>
    <path d="M29.2628 4.69007C30.0349 4.67182 30.8032 4.80453 31.5259 5.08091C32.1711 5.32149 32.7551 5.70538 33.2352 6.20455C33.7033 6.70168 34.0641 7.29234 34.2945 7.93886C34.5529 8.65439 34.6794 9.41203 34.6677 10.174V18.7235H31.3694V10.7602C31.3934 10.3365 31.3322 9.91216 31.1894 9.5132C31.0466 9.11424 30.8252 8.74901 30.5388 8.43966C30.242 8.15592 29.8918 7.936 29.5091 7.79327C29.1263 7.65054 28.7191 7.58795 28.3119 7.60914C27.8996 7.60622 27.4907 7.68498 27.1081 7.84113C26.7427 7.9899 26.4049 8.20054 26.109 8.46404C25.8341 8.72028 25.6095 9.02692 25.4469 9.36783C25.2785 9.70456 25.1918 10.0773 25.1941 10.4549V18.7235H21.9199V0H25.1941V6.32665C25.6869 5.80196 26.2811 5.38616 26.9396 5.10529C27.68 4.81488 28.4692 4.67387 29.2628 4.69007Z"/>
    <path d="M40.8318 4.99548H37.5576V18.7725H40.8318V4.99548Z"/>
    <path d="M49.9305 18.7838C49.2571 18.8324 48.5813 18.7368 47.9467 18.5033C47.3121 18.2697 46.733 17.9034 46.247 17.4281C45.3872 16.4145 44.9548 15.0984 45.0432 13.764V7.82821H42.6357V4.97019H43.8395C44.7303 4.97019 45.1756 4.50604 45.1756 3.56559V1.3916H48.3776V4.97019H51.9287V7.82821H48.3175V13.3732C48.3175 15.0098 49.0758 15.8159 50.5805 15.8159H52.0852V18.7227L49.9305 18.7838Z"/>
    <path d="M56.0931 12.9473C56.2603 13.9088 56.7649 14.7765 57.5135 15.39C58.206 15.8929 59.0213 16.1929 59.8704 16.2576C60.7196 16.3222 61.5699 16.1488 62.3285 15.7564C62.8702 15.411 63.3076 14.9208 63.5925 14.3396L66.1685 16.0128C65.9042 16.4529 65.5934 16.8624 65.2416 17.2342C64.8655 17.6332 64.4311 17.971 63.9536 18.2357C63.409 18.5271 62.8308 18.7487 62.2323 18.8953C61.5112 19.0718 60.7709 19.1538 60.0294 19.1395C59.0217 19.1506 58.0211 18.9684 57.0802 18.6022C56.2516 18.2398 55.5057 17.7075 54.8894 17.0388C54.26 16.3849 53.7685 15.6078 53.4448 14.7549C53.0921 13.845 52.9163 12.8745 52.9272 11.8968C52.9191 9.98893 53.6446 8.15301 54.9495 6.77933C55.5902 6.10984 56.3577 5.57866 57.2058 5.21766C58.0539 4.85666 58.9652 4.67332 59.8849 4.67862C60.8743 4.6624 61.8555 4.86232 62.7619 5.26485C63.5804 5.62745 64.3175 6.15522 64.9286 6.816C65.518 7.45725 65.9798 8.20786 66.2889 9.02667C66.6103 9.84656 66.7737 10.7214 66.7704 11.6037C66.7704 11.8602 66.7704 12.1167 66.7704 12.361C66.7653 12.5543 66.7412 12.7466 66.6982 12.935L56.0931 12.9473ZM63.5684 10.6266C63.4429 9.70022 63.0198 8.84164 62.3646 8.18392C61.6971 7.59977 60.8382 7.29038 59.9571 7.31673C59.0566 7.29277 58.1772 7.59598 57.4774 8.1717C56.7634 8.80166 56.2904 9.66634 56.1413 10.6144L63.5684 10.6266Z"/>
    <path d="M73.6709 19.09C72.3688 19.1323 71.0784 18.8292 69.9272 18.2106C68.9253 17.6289 68.1804 16.6808 67.8447 15.5602L70.7097 14.4366C70.8708 15.0515 71.2474 15.5856 71.7689 15.9388C72.3774 16.3236 73.0871 16.5111 73.8033 16.4762C74.3479 16.5084 74.8894 16.3721 75.3561 16.0854C75.5445 15.9697 75.698 15.8037 75.7999 15.6056C75.9018 15.4075 75.9482 15.1848 75.9339 14.9618C75.9419 14.7492 75.895 14.5383 75.7978 14.3497C75.7007 14.1612 75.5567 14.0017 75.3802 13.887C74.9544 13.5988 74.493 13.3688 74.0079 13.203C73.4542 12.9954 72.8042 12.8 72.2144 12.6045C71.5904 12.4265 70.9886 12.1765 70.4207 11.8595C69.8802 11.56 69.4116 11.143 69.0485 10.6382C68.6538 10.0858 68.4544 9.41447 68.4827 8.73284C68.4634 8.15644 68.5826 7.58392 68.8301 7.06472C69.0776 6.54552 69.4458 6.09524 69.9031 5.75271C71.0284 4.96613 72.3786 4.57958 73.7431 4.65345C74.8993 4.61052 76.0459 4.88031 77.0655 5.43514C77.9202 5.90294 78.5598 6.69231 78.847 7.63358L75.9941 8.75722C75.8406 8.27273 75.5295 7.8555 75.1119 7.57372C74.6942 7.29194 74.1947 7.16235 73.6949 7.20613C73.2068 7.17493 72.7216 7.30334 72.3106 7.57253C72.16 7.69004 72.039 7.84201 71.9574 8.01608C71.8758 8.19015 71.836 8.38137 71.8412 8.57405C71.8366 8.77272 71.8858 8.96886 71.9835 9.14113C72.0811 9.31339 72.2234 9.45518 72.3949 9.55113C72.8239 9.81193 73.2854 10.0132 73.7672 10.1496L75.5608 10.6748C76.1865 10.8474 76.7889 11.0977 77.3544 11.4199C77.8958 11.723 78.3676 12.1393 78.7387 12.6412C79.1294 13.2409 79.3232 13.9505 79.2924 14.6686C79.3181 15.2917 79.1907 15.9114 78.9218 16.4721C78.6528 17.0329 78.2507 17.5169 77.7516 17.8808C76.557 18.7231 75.1245 19.1476 73.6709 19.09Z"/>
    <path d="M89.0781 4.6895C90.0013 4.67684 90.9164 4.86423 91.7625 5.23913C92.5552 5.59355 93.2681 6.10896 93.857 6.7536C94.4653 7.41259 94.9362 8.18943 95.2413 9.03755C95.5755 9.95614 95.7427 10.9286 95.7348 11.9077C95.7437 12.8841 95.5723 13.8535 95.2293 14.7657C94.7578 16.0495 93.9068 17.1539 92.7927 17.9279C91.6786 18.7019 90.356 19.1076 89.0059 19.0893C88.1808 19.1007 87.3619 18.9428 86.5984 18.6252C85.9019 18.3238 85.2747 17.8787 84.7566 17.3184V23.8038H81.4824V4.99484H84.5159V6.82688C85.0406 6.15935 85.7072 5.6207 86.4659 5.25128C87.2825 4.86262 88.1764 4.6704 89.0781 4.6895ZM88.5605 16.1703C89.0995 16.1767 89.6335 16.0642 90.1254 15.8405C90.5795 15.6249 90.9883 15.3221 91.3291 14.9489C91.6828 14.5596 91.9569 14.1029 92.1356 13.6054C92.3358 13.0667 92.4377 12.4956 92.4366 11.9199C92.4379 11.3403 92.3359 10.7651 92.1356 10.2222C91.9542 9.72242 91.6805 9.26231 91.3291 8.86654C90.9915 8.48973 90.582 8.18643 90.1254 7.97497C89.63 7.765 89.0972 7.66105 88.5605 7.66963C88.0159 7.66116 87.4754 7.76504 86.9716 7.97497C86.5147 8.18042 86.1047 8.47983 85.7678 8.85431C85.4063 9.23989 85.1276 9.6974 84.9492 10.1979C84.5804 11.3113 84.5804 12.5165 84.9492 13.6299C85.1276 14.1303 85.4063 14.5878 85.7678 14.9734C86.1047 15.3478 86.5147 15.6473 86.9716 15.8528C87.4857 16.0718 88.0391 16.1799 88.5966 16.1703H88.5605Z"/>
    <path d="M112.18 4.99534V18.7845H109.134V16.928C108.64 17.5995 107.996 18.1435 107.256 18.5158C106.443 18.9157 105.547 19.1124 104.644 19.0898C103.721 19.1014 102.806 18.914 101.96 18.5402C101.15 18.1849 100.419 17.6676 99.8112 17.0191C99.2031 16.3706 98.7301 15.6044 98.4206 14.7662C98.0873 13.8516 97.9202 12.8833 97.9271 11.9082C97.9181 10.9369 98.0854 9.97225 98.4206 9.06243C98.7395 8.23371 99.2184 7.47804 99.8291 6.83961C100.438 6.22011 101.162 5.73007 101.96 5.39834C102.814 5.05808 103.726 4.8881 104.644 4.89761C105.543 4.87642 106.436 5.06006 107.256 5.43501C107.996 5.78064 108.64 6.30482 109.134 6.96172V4.99534H112.18ZM105.089 16.1708C105.629 16.1589 106.161 16.0385 106.654 15.8166C107.111 15.6111 107.521 15.3117 107.858 14.9373C108.221 14.553 108.5 14.0951 108.677 13.5937C108.87 13.0412 108.964 12.4579 108.953 11.8716C109.006 10.7372 108.617 9.62721 107.87 8.78154C107.509 8.38135 107.068 8.065 106.575 7.85418C106.083 7.64337 105.551 7.54309 105.017 7.56017C104.481 7.55264 103.948 7.65655 103.452 7.86551C102.993 8.07265 102.583 8.37656 102.249 8.75709C101.896 9.15411 101.618 9.61375 101.43 10.1129C101.234 10.6608 101.136 11.2398 101.141 11.8227C101.136 12.4016 101.234 12.9768 101.43 13.5204C101.616 14.0173 101.894 14.4733 102.249 14.8639C102.586 15.2407 102.996 15.5441 103.452 15.7555C103.96 16.0182 104.52 16.1601 105.089 16.1708Z"/>
    <path d="M117.33 11.9083C117.327 10.0822 117.709 8.27657 118.45 6.61246C119.192 4.94835 120.275 3.46422 121.627 2.25957L119.665 0C118.002 1.48995 116.67 3.32172 115.758 5.37373C114.846 7.42574 114.374 9.65108 114.374 11.9022C114.374 14.1533 114.846 16.3787 115.758 18.4307C116.67 20.4827 118.002 22.3144 119.665 23.8044L121.627 21.5449C120.276 20.3416 119.194 18.8594 118.453 17.1976C117.712 15.5357 117.329 13.7324 117.33 11.9083Z"/>
    <path d="M123.43 12.9457C123.59 13.5925 123.894 14.1937 124.317 14.7038C124.741 15.214 125.273 15.6198 125.874 15.8905C126.474 16.1611 127.128 16.2896 127.785 16.2661C128.442 16.2426 129.085 16.0678 129.665 15.7549C130.185 15.401 130.601 14.9115 130.869 14.338L133.445 16.0113C133.181 16.4514 132.87 16.8609 132.518 17.2327C132.142 17.6316 131.708 17.9695 131.23 18.2342C130.69 18.5257 130.116 18.7473 129.521 18.8938C128.8 19.0688 128.059 19.1508 127.318 19.138C126.306 19.1492 125.302 18.9669 124.357 18.6007C123.51 18.2564 122.743 17.7364 122.106 17.074C121.481 16.4167 120.99 15.6405 120.661 14.7899C120.314 13.8785 120.139 12.9091 120.144 11.932C120.135 10.0241 120.861 8.18816 122.166 6.81447C122.797 6.15829 123.55 5.63526 124.381 5.27554C125.238 4.89422 126.165 4.70266 127.101 4.71369C128.091 4.69632 129.072 4.89636 129.978 5.29999C130.797 5.6626 131.534 6.19029 132.145 6.85107C132.734 7.49492 133.199 8.24464 133.517 9.06174C133.829 9.88405 133.988 10.7578 133.987 11.6389C133.987 11.8954 133.987 12.1518 133.987 12.3961C134.005 12.587 134.005 12.7792 133.987 12.9701L123.43 12.9457ZM130.905 10.6251C130.785 9.69703 130.361 8.83678 129.701 8.18239C129.035 7.59614 128.175 7.28644 127.294 7.3152C126.393 7.29124 125.514 7.59445 124.814 8.17017C124.1 8.80013 123.627 9.66481 123.478 10.6129L130.905 10.6251Z"/>
    <path d="M39.1828 4.05493C40.2864 4.05493 41.181 3.1472 41.181 2.02746C41.181 0.907726 40.2864 0 39.1828 0C38.0792 0 37.1846 0.907726 37.1846 2.02746C37.1846 3.1472 38.0792 4.05493 39.1828 4.05493Z"/>
</svg>
